<svg width="42" height="11" viewBox="0 0 42 11" fill="none" xmlns="http://www.w3.org/2000/svg">
<path d="M24.4425 4.34007C24.4425 3.7998 24.8805 3.36182 25.4208 3.36182H38.8064C39.3467 3.36182 39.7847 3.7998 39.7847 4.34007V8.33434C39.7847 8.87461 39.3467 9.31259 38.8064 9.31259H25.4208C24.8805 9.31259 24.4425 8.87461 24.4425 8.33434V4.34007Z" fill="white" fill-opacity="0.01" stroke="white" stroke-width="0.339669"/>
<path fill-rule="evenodd" clip-rule="evenodd" d="M25.4826 3.85413C25.1993 3.85413 24.9697 4.08376 24.9697 4.36703V8.30736C24.9697 8.59062 25.1993 8.82026 25.4826 8.82026H38.7446C39.0279 8.82026 39.2575 8.59063 39.2575 8.30736V4.36703C39.2575 4.08376 39.0279 3.85413 38.7446 3.85413H25.4826Z" fill="white"/>
<path fill-rule="evenodd" clip-rule="evenodd" d="M40.303 7.49596H40.4587C40.9501 7.49596 41.3484 7.11846 41.3484 6.65273V6.02167C41.3484 5.55597 40.949 5.17844 40.4587 5.17844H40.303V7.49596Z" fill="white"/>
<path d="M5.3937 9.28384H4.65333V4.3759L3.16861 4.92123V4.2525L5.27827 3.46038H5.3937V9.28384ZM11.1819 6.81196C11.1819 7.6744 11.0346 8.31526 10.7401 8.73454C10.4455 9.15381 9.98512 9.36345 9.35885 9.36345C8.74055 9.36345 8.2828 9.15912 7.98559 8.75046C7.68838 8.33914 7.53446 7.72614 7.52385 6.91147V5.92829C7.52385 5.07646 7.67113 4.44357 7.96568 4.02959C8.26024 3.61562 8.72198 3.40864 9.35089 3.40864C9.9745 3.40864 10.4336 3.60899 10.7281 4.00969C11.0227 4.40774 11.174 5.02339 11.1819 5.85664V6.81196ZM10.4455 5.80489C10.4455 5.18128 10.358 4.72751 10.1828 4.44357C10.0077 4.15697 9.73037 4.01367 9.35089 4.01367C8.97407 4.01367 8.69942 4.15564 8.52693 4.43959C8.35444 4.72353 8.26555 5.16005 8.26024 5.74917V6.92739C8.26024 7.55366 8.35046 8.01672 8.53091 8.31658C8.71402 8.61379 8.99 8.7624 9.35885 8.7624C9.72241 8.7624 9.99175 8.62176 10.1669 8.34047C10.3447 8.05918 10.4376 7.61602 10.4455 7.01098V5.80489ZM15.7561 6.81196C15.7561 7.6744 15.6088 8.31526 15.3143 8.73454C15.0197 9.15381 14.5593 9.36345 13.933 9.36345C13.3147 9.36345 12.857 9.15912 12.5598 8.75046C12.2625 8.33914 12.1086 7.72614 12.098 6.91147V5.92829C12.098 5.07646 12.2453 4.44357 12.5399 4.02959C12.8344 3.61562 13.2961 3.40864 13.9251 3.40864C14.5487 3.40864 15.0078 3.60899 15.3023 4.00969C15.5969 4.40774 15.7481 5.02339 15.7561 5.85664V6.81196ZM15.0197 5.80489C15.0197 5.18128 14.9321 4.72751 14.757 4.44357C14.5818 4.15697 14.3045 4.01367 13.9251 4.01367C13.5482 4.01367 13.2736 4.15564 13.1011 4.43959C12.9286 4.72353 12.8397 5.16005 12.8344 5.74917V6.92739C12.8344 7.55366 12.9246 8.01672 13.1051 8.31658C13.2882 8.61379 13.5642 8.7624 13.933 8.7624C14.2966 8.7624 14.5659 8.62176 14.7411 8.34047C14.9189 8.05918 15.0117 7.61602 15.0197 7.01098V5.80489ZM16.6324 4.60279C16.6324 4.25516 16.7425 3.96856 16.9628 3.743C17.1857 3.51744 17.4709 3.40466 17.8186 3.40466C18.1715 3.40466 18.4568 3.51877 18.6744 3.74698C18.8946 3.97254 19.0048 4.26577 19.0048 4.62667V4.90928C19.0048 5.25957 18.8933 5.54616 18.6704 5.76907C18.4501 5.98932 18.1689 6.09945 17.8265 6.09945C17.4816 6.09945 17.1963 5.98932 16.9707 5.76907C16.7452 5.54616 16.6324 5.25028 16.6324 4.88142V4.60279ZM17.1817 4.90928C17.1817 5.11627 17.2401 5.28743 17.3568 5.42277C17.4736 5.55545 17.6302 5.62179 17.8265 5.62179C18.0149 5.62179 18.1662 5.55678 18.2803 5.42675C18.3971 5.29672 18.4554 5.11892 18.4554 4.89336V4.60279C18.4554 4.3958 18.3984 4.22464 18.2843 4.0893C18.1702 3.95397 18.0149 3.8863 17.8186 3.8863C17.6222 3.8863 17.467 3.95397 17.3528 4.0893C17.2387 4.22464 17.1817 4.40111 17.1817 4.61871V4.90928ZM19.4545 7.86281C19.4545 7.51518 19.5647 7.22991 19.7849 7.007C20.0078 6.78144 20.2931 6.66866 20.6407 6.66866C20.9884 6.66866 21.2736 6.78011 21.4965 7.00302C21.7194 7.22593 21.8309 7.52181 21.8309 7.89067V8.17329C21.8309 8.52092 21.7194 8.80751 21.4965 9.03307C21.2763 9.25598 20.9937 9.36743 20.6487 9.36743C20.3037 9.36743 20.0185 9.25731 19.7929 9.03705C19.5673 8.81415 19.4545 8.51826 19.4545 8.1494V7.86281ZM20.0039 8.17329C20.0039 8.38293 20.0622 8.55541 20.179 8.69075C20.2958 8.82343 20.4523 8.88978 20.6487 8.88978C20.8398 8.88978 20.9923 8.82476 21.1065 8.69473C21.2206 8.56205 21.2776 8.38293 21.2776 8.15736V7.86281C21.2776 7.65317 21.2192 7.48201 21.1025 7.34932C20.9884 7.21664 20.8345 7.1503 20.6407 7.1503C20.4523 7.1503 20.2984 7.21664 20.179 7.34932C20.0622 7.47935 20.0039 7.65582 20.0039 7.87873V8.17329ZM17.9937 8.84599L17.5758 8.58328L20.4059 4.05348L20.8238 4.31619L17.9937 8.84599Z" fill="white"/>
</svg>
