<svg width="30" height="7" viewBox="0 0 30 7" fill="none" xmlns="http://www.w3.org/2000/svg">
<path d="M3.67415 3.99588C3.52024 4.17898 3.33581 4.32626 3.12087 4.43772C2.90857 4.54917 2.67505 4.6049 2.4203 4.6049C2.08594 4.6049 1.79404 4.52263 1.54459 4.35811C1.2978 4.19358 1.10674 3.96271 0.9714 3.6655C0.836064 3.36564 0.768395 3.03526 0.768395 2.67436C0.768395 2.28692 0.841371 1.93797 0.987322 1.62749C1.13593 1.31701 1.34557 1.07951 1.61624 0.914981C1.88691 0.750454 2.2027 0.66819 2.5636 0.66819C3.13679 0.66819 3.58791 0.883137 3.91696 1.31303C4.24867 1.74027 4.41453 2.32407 4.41453 3.06445V3.27939C4.41453 4.4072 4.19162 5.23116 3.7458 5.75128C3.29999 6.26874 2.62728 6.53411 1.72769 6.54738H1.5844V5.92642H1.73964C2.34732 5.91581 2.81437 5.75791 3.14077 5.45274C3.46717 5.14492 3.64496 4.6593 3.67415 3.99588ZM2.53971 3.99588C2.7865 3.99588 3.01339 3.92025 3.22038 3.76899C3.43002 3.61773 3.5826 3.43065 3.67813 3.20774V2.91319C3.67813 2.43022 3.57332 2.03748 3.36368 1.73496C3.15404 1.43244 2.88867 1.28119 2.56758 1.28119C2.24383 1.28119 1.98377 1.40591 1.7874 1.65535C1.59103 1.90214 1.49284 2.22854 1.49284 2.63455C1.49284 3.02995 1.58705 3.35635 1.77546 3.61375C1.96652 3.86851 2.22127 3.99588 2.53971 3.99588ZM5.49488 6.15729C5.49488 6.02991 5.53204 5.92377 5.60634 5.83885C5.68329 5.75393 5.7974 5.71147 5.94866 5.71147C6.09992 5.71147 6.21403 5.75393 6.29098 5.83885C6.37059 5.92377 6.4104 6.02991 6.4104 6.15729C6.4104 6.27936 6.37059 6.38152 6.29098 6.46379C6.21403 6.54605 6.09992 6.58718 5.94866 6.58718C5.7974 6.58718 5.68329 6.54605 5.60634 6.46379C5.53204 6.38152 5.49488 6.27936 5.49488 6.15729ZM5.49886 2.64251C5.49886 2.51514 5.53602 2.40899 5.61032 2.32407C5.68727 2.23916 5.80138 2.1967 5.95264 2.1967C6.1039 2.1967 6.21801 2.23916 6.29496 2.32407C6.37457 2.40899 6.41438 2.51514 6.41438 2.64251C6.41438 2.76458 6.37457 2.86675 6.29496 2.94901C6.21801 3.03128 6.1039 3.07241 5.95264 3.07241C5.80138 3.07241 5.68727 3.03128 5.61032 2.94901C5.53602 2.86675 5.49886 2.76458 5.49886 2.64251ZM10.5398 4.59694H11.3439V5.19799H10.5398V6.5434H9.79944V5.19799H7.16038V4.76412L9.75566 0.7478H10.5398V4.59694ZM7.99628 4.59694H9.79944V1.75486L9.71187 1.91408L7.99628 4.59694ZM14.4423 6.5434H13.702V1.63545L12.2172 2.18078V1.51205L14.3269 0.719937H14.4423V6.5434ZM22.0404 5.03081H19.6123L19.067 6.5434H18.2788L20.492 0.7478H21.1607L23.3779 6.5434H22.5937L22.0404 5.03081ZM19.8432 4.40189H21.8135L20.8264 1.69118L19.8432 4.40189ZM25.1588 0.7478L27.0535 5.47662L28.9482 0.7478H29.9394V6.5434H29.1751V4.28646L29.2467 1.8504L27.3441 6.5434H26.7589L24.8602 1.86234L24.9359 4.28646V6.5434H24.1716V0.7478H25.1588Z" fill="white"/>
</svg>
