<svg width="10" height="10" viewBox="0 0 10 10" fill="none" xmlns="http://www.w3.org/2000/svg">
<mask id="mask0" mask-type="alpha" maskUnits="userSpaceOnUse" x="0" y="0" width="10" height="10">
<path fill-rule="evenodd" clip-rule="evenodd" d="M5.1894 9.11823L9.59004 4.61561L5.1894 0.401703L0.788757 4.61561L5.1894 9.11823Z" fill="white"/>
</mask>
<g mask="url(#mask0)">
<path fill-rule="evenodd" clip-rule="evenodd" d="M5.1894 9.11823L9.59004 4.61561L5.1894 0.401703L0.788757 4.61561L5.1894 9.11823Z" fill="black" fill-opacity="0.01"/>
<path fill-rule="evenodd" clip-rule="evenodd" d="M11.2879 8.98581C11.2879 12.1857 8.5575 14.7796 5.18939 14.7796C1.82129 14.7796 -0.909088 12.1857 -0.909088 8.98581C-0.909088 5.78598 1.82129 3.19199 5.18939 3.19199C8.5575 3.19199 11.2879 5.78598 11.2879 8.98581ZM10.2424 8.98581C10.2424 11.6371 7.9801 13.7864 5.18939 13.7864C2.39868 13.7864 0.136353 11.6371 0.136353 8.98581C0.136353 6.33453 2.39868 4.18524 5.18939 4.18524C7.9801 4.18524 10.2424 6.33453 10.2424 8.98581Z" fill="white"/>
<path fill-rule="evenodd" clip-rule="evenodd" d="M9.19696 8.98578C9.19696 11.0885 7.40271 12.7932 5.18939 12.7932C2.97607 12.7932 1.18182 11.0885 1.18182 8.98578C1.18182 6.88303 2.97607 5.17844 5.18939 5.17844C7.40271 5.17844 9.19696 6.88303 9.19696 8.98578ZM8.15152 8.98578C8.15152 10.54 6.82532 11.7999 5.18939 11.7999C3.55347 11.7999 2.22726 10.54 2.22726 8.98578C2.22726 7.43158 3.55347 6.17166 5.18939 6.17166C6.82532 6.17166 8.15152 7.43158 8.15152 8.98578Z" fill="white"/>
<path fill-rule="evenodd" clip-rule="evenodd" d="M5.1894 10.8067C6.24795 10.8067 7.10607 9.99147 7.10607 8.9858C7.10607 7.98014 6.24795 7.16489 5.1894 7.16489C4.13086 7.16489 3.27274 7.98014 3.27274 8.9858C3.27274 9.99147 4.13086 10.8067 5.1894 10.8067Z" fill="white"/>
</g>
</svg>
